<mxfile host="app.diagrams.net" agent="Mozilla/5.0 (X11; Linux x86_64) AppleWebKit/537.36 (KHTML, like Gecko) Chrome/127.0.0.0 Safari/537.36" version="24.7.7">
  <diagram name="Page-1" id="c4acf3e9-155e-7222-9cf6-157b1a14988f">
    <mxGraphModel dx="989" dy="542" grid="1" gridSize="10" guides="1" tooltips="1" connect="1" arrows="1" fold="1" page="1" pageScale="1" pageWidth="850" pageHeight="1100" background="none" math="0" shadow="0">
      <root>
        <mxCell id="0" />
        <mxCell id="1" parent="0" />
        <mxCell id="f7d2u4jv31vITQ6-mz4s-1" value="User" style="swimlane;whiteSpace=wrap;html=1;" vertex="1" parent="1">
          <mxGeometry x="100" y="297" width="120" height="220" as="geometry" />
        </mxCell>
        <mxCell id="f7d2u4jv31vITQ6-mz4s-2" value="Id" style="text;html=1;align=left;verticalAlign=middle;whiteSpace=wrap;rounded=0;" vertex="1" parent="f7d2u4jv31vITQ6-mz4s-1">
          <mxGeometry x="20" y="23" width="60" height="30" as="geometry" />
        </mxCell>
        <mxCell id="f7d2u4jv31vITQ6-mz4s-3" value="firstname" style="text;html=1;align=left;verticalAlign=middle;whiteSpace=wrap;rounded=0;" vertex="1" parent="f7d2u4jv31vITQ6-mz4s-1">
          <mxGeometry x="20" y="53" width="60" height="30" as="geometry" />
        </mxCell>
        <mxCell id="f7d2u4jv31vITQ6-mz4s-7" value="email" style="text;html=1;align=left;verticalAlign=middle;whiteSpace=wrap;rounded=0;" vertex="1" parent="f7d2u4jv31vITQ6-mz4s-1">
          <mxGeometry x="20" y="150" width="60" height="30" as="geometry" />
        </mxCell>
        <mxCell id="f7d2u4jv31vITQ6-mz4s-6" value="password" style="text;html=1;align=left;verticalAlign=middle;whiteSpace=wrap;rounded=0;" vertex="1" parent="f7d2u4jv31vITQ6-mz4s-1">
          <mxGeometry x="20" y="180" width="60" height="30" as="geometry" />
        </mxCell>
        <mxCell id="f7d2u4jv31vITQ6-mz4s-5" value="birthdate" style="text;html=1;align=left;verticalAlign=middle;whiteSpace=wrap;rounded=0;" vertex="1" parent="f7d2u4jv31vITQ6-mz4s-1">
          <mxGeometry x="20" y="120" width="60" height="30" as="geometry" />
        </mxCell>
        <mxCell id="f7d2u4jv31vITQ6-mz4s-4" value="lastname" style="text;html=1;align=left;verticalAlign=middle;whiteSpace=wrap;rounded=0;" vertex="1" parent="f7d2u4jv31vITQ6-mz4s-1">
          <mxGeometry x="20" y="83" width="60" height="30" as="geometry" />
        </mxCell>
        <mxCell id="f7d2u4jv31vITQ6-mz4s-8" value="Artist" style="swimlane;whiteSpace=wrap;html=1;" vertex="1" parent="1">
          <mxGeometry x="400" y="290" width="130" height="150" as="geometry" />
        </mxCell>
        <mxCell id="f7d2u4jv31vITQ6-mz4s-9" value="Id" style="text;html=1;align=left;verticalAlign=middle;whiteSpace=wrap;rounded=0;" vertex="1" parent="f7d2u4jv31vITQ6-mz4s-8">
          <mxGeometry x="20" y="23" width="60" height="30" as="geometry" />
        </mxCell>
        <mxCell id="f7d2u4jv31vITQ6-mz4s-10" value="history" style="text;html=1;align=left;verticalAlign=middle;whiteSpace=wrap;rounded=0;" vertex="1" parent="f7d2u4jv31vITQ6-mz4s-8">
          <mxGeometry x="20" y="53" width="60" height="30" as="geometry" />
        </mxCell>
        <mxCell id="f7d2u4jv31vITQ6-mz4s-13" value="siret" style="text;html=1;align=left;verticalAlign=middle;whiteSpace=wrap;rounded=0;" vertex="1" parent="f7d2u4jv31vITQ6-mz4s-8">
          <mxGeometry x="20" y="120" width="60" height="30" as="geometry" />
        </mxCell>
        <mxCell id="f7d2u4jv31vITQ6-mz4s-14" value="craftingDescription" style="text;html=1;align=left;verticalAlign=middle;whiteSpace=wrap;rounded=0;" vertex="1" parent="f7d2u4jv31vITQ6-mz4s-8">
          <mxGeometry x="20" y="83" width="60" height="30" as="geometry" />
        </mxCell>
        <mxCell id="f7d2u4jv31vITQ6-mz4s-15" value="Specialty" style="swimlane;whiteSpace=wrap;html=1;" vertex="1" parent="1">
          <mxGeometry x="330" y="120" width="110" height="90" as="geometry" />
        </mxCell>
        <mxCell id="f7d2u4jv31vITQ6-mz4s-16" value="Id" style="text;html=1;align=left;verticalAlign=middle;whiteSpace=wrap;rounded=0;" vertex="1" parent="f7d2u4jv31vITQ6-mz4s-15">
          <mxGeometry x="20" y="23" width="60" height="30" as="geometry" />
        </mxCell>
        <mxCell id="f7d2u4jv31vITQ6-mz4s-17" value="name" style="text;html=1;align=left;verticalAlign=middle;whiteSpace=wrap;rounded=0;" vertex="1" parent="f7d2u4jv31vITQ6-mz4s-15">
          <mxGeometry x="20" y="53" width="60" height="30" as="geometry" />
        </mxCell>
        <mxCell id="f7d2u4jv31vITQ6-mz4s-20" value="Theme" style="swimlane;whiteSpace=wrap;html=1;" vertex="1" parent="1">
          <mxGeometry x="480" y="120" width="110" height="90" as="geometry" />
        </mxCell>
        <mxCell id="f7d2u4jv31vITQ6-mz4s-21" value="Id" style="text;html=1;align=left;verticalAlign=middle;whiteSpace=wrap;rounded=0;" vertex="1" parent="f7d2u4jv31vITQ6-mz4s-20">
          <mxGeometry x="20" y="23" width="60" height="30" as="geometry" />
        </mxCell>
        <mxCell id="f7d2u4jv31vITQ6-mz4s-22" value="enum" style="text;html=1;align=left;verticalAlign=middle;whiteSpace=wrap;rounded=0;" vertex="1" parent="f7d2u4jv31vITQ6-mz4s-20">
          <mxGeometry x="20" y="53" width="60" height="30" as="geometry" />
        </mxCell>
        <mxCell id="f7d2u4jv31vITQ6-mz4s-23" value="Address" style="swimlane;whiteSpace=wrap;html=1;" vertex="1" parent="1">
          <mxGeometry x="20" y="20" width="120" height="190" as="geometry" />
        </mxCell>
        <mxCell id="f7d2u4jv31vITQ6-mz4s-24" value="Id" style="text;html=1;align=left;verticalAlign=middle;whiteSpace=wrap;rounded=0;" vertex="1" parent="f7d2u4jv31vITQ6-mz4s-23">
          <mxGeometry x="20" y="23" width="60" height="30" as="geometry" />
        </mxCell>
        <mxCell id="f7d2u4jv31vITQ6-mz4s-25" value="street" style="text;html=1;align=left;verticalAlign=middle;whiteSpace=wrap;rounded=0;" vertex="1" parent="f7d2u4jv31vITQ6-mz4s-23">
          <mxGeometry x="20" y="53" width="60" height="30" as="geometry" />
        </mxCell>
        <mxCell id="f7d2u4jv31vITQ6-mz4s-26" value="countryCode" style="text;html=1;align=left;verticalAlign=middle;whiteSpace=wrap;rounded=0;" vertex="1" parent="f7d2u4jv31vITQ6-mz4s-23">
          <mxGeometry x="20" y="150" width="60" height="30" as="geometry" />
        </mxCell>
        <mxCell id="f7d2u4jv31vITQ6-mz4s-28" value="city" style="text;html=1;align=left;verticalAlign=middle;whiteSpace=wrap;rounded=0;" vertex="1" parent="f7d2u4jv31vITQ6-mz4s-23">
          <mxGeometry x="20" y="120" width="60" height="30" as="geometry" />
        </mxCell>
        <mxCell id="f7d2u4jv31vITQ6-mz4s-29" value="postalCode" style="text;html=1;align=left;verticalAlign=middle;whiteSpace=wrap;rounded=0;" vertex="1" parent="f7d2u4jv31vITQ6-mz4s-23">
          <mxGeometry x="20" y="83" width="60" height="30" as="geometry" />
        </mxCell>
        <mxCell id="f7d2u4jv31vITQ6-mz4s-30" value="Role" style="swimlane;whiteSpace=wrap;html=1;" vertex="1" parent="1">
          <mxGeometry x="180" y="90" width="110" height="120" as="geometry" />
        </mxCell>
        <mxCell id="f7d2u4jv31vITQ6-mz4s-31" value="Id" style="text;html=1;align=left;verticalAlign=middle;whiteSpace=wrap;rounded=0;" vertex="1" parent="f7d2u4jv31vITQ6-mz4s-30">
          <mxGeometry x="20" y="23" width="60" height="30" as="geometry" />
        </mxCell>
        <mxCell id="f7d2u4jv31vITQ6-mz4s-32" value="name" style="text;html=1;align=left;verticalAlign=middle;whiteSpace=wrap;rounded=0;" vertex="1" parent="f7d2u4jv31vITQ6-mz4s-30">
          <mxGeometry x="20" y="53" width="60" height="30" as="geometry" />
        </mxCell>
        <mxCell id="f7d2u4jv31vITQ6-mz4s-34" value="enum" style="text;html=1;align=left;verticalAlign=middle;whiteSpace=wrap;rounded=0;" vertex="1" parent="f7d2u4jv31vITQ6-mz4s-30">
          <mxGeometry x="20" y="83" width="60" height="30" as="geometry" />
        </mxCell>
        <mxCell id="f7d2u4jv31vITQ6-mz4s-35" value="Product" style="swimlane;whiteSpace=wrap;html=1;" vertex="1" parent="1">
          <mxGeometry x="400" y="465" width="120" height="250" as="geometry" />
        </mxCell>
        <mxCell id="f7d2u4jv31vITQ6-mz4s-36" value="Id" style="text;html=1;align=left;verticalAlign=middle;whiteSpace=wrap;rounded=0;" vertex="1" parent="f7d2u4jv31vITQ6-mz4s-35">
          <mxGeometry x="20" y="23" width="60" height="30" as="geometry" />
        </mxCell>
        <mxCell id="f7d2u4jv31vITQ6-mz4s-37" value="name" style="text;html=1;align=left;verticalAlign=middle;whiteSpace=wrap;rounded=0;" vertex="1" parent="f7d2u4jv31vITQ6-mz4s-35">
          <mxGeometry x="20" y="53" width="60" height="30" as="geometry" />
        </mxCell>
        <mxCell id="f7d2u4jv31vITQ6-mz4s-38" value="stock" style="text;html=1;align=left;verticalAlign=middle;whiteSpace=wrap;rounded=0;" vertex="1" parent="f7d2u4jv31vITQ6-mz4s-35">
          <mxGeometry x="20" y="150" width="60" height="30" as="geometry" />
        </mxCell>
        <mxCell id="f7d2u4jv31vITQ6-mz4s-39" value="imageUrl" style="text;html=1;align=left;verticalAlign=middle;whiteSpace=wrap;rounded=0;" vertex="1" parent="f7d2u4jv31vITQ6-mz4s-35">
          <mxGeometry x="20" y="180" width="60" height="30" as="geometry" />
        </mxCell>
        <mxCell id="f7d2u4jv31vITQ6-mz4s-40" value="price" style="text;html=1;align=left;verticalAlign=middle;whiteSpace=wrap;rounded=0;" vertex="1" parent="f7d2u4jv31vITQ6-mz4s-35">
          <mxGeometry x="20" y="120" width="60" height="30" as="geometry" />
        </mxCell>
        <mxCell id="f7d2u4jv31vITQ6-mz4s-41" value="description" style="text;html=1;align=left;verticalAlign=middle;whiteSpace=wrap;rounded=0;" vertex="1" parent="f7d2u4jv31vITQ6-mz4s-35">
          <mxGeometry x="20" y="83" width="60" height="30" as="geometry" />
        </mxCell>
        <mxCell id="f7d2u4jv31vITQ6-mz4s-42" value="type" style="text;html=1;align=left;verticalAlign=middle;whiteSpace=wrap;rounded=0;" vertex="1" parent="f7d2u4jv31vITQ6-mz4s-35">
          <mxGeometry x="20" y="210" width="60" height="30" as="geometry" />
        </mxCell>
        <mxCell id="f7d2u4jv31vITQ6-mz4s-43" value="Material" style="swimlane;whiteSpace=wrap;html=1;" vertex="1" parent="1">
          <mxGeometry x="560" y="600" width="110" height="90" as="geometry" />
        </mxCell>
        <mxCell id="f7d2u4jv31vITQ6-mz4s-44" value="Id" style="text;html=1;align=left;verticalAlign=middle;whiteSpace=wrap;rounded=0;" vertex="1" parent="f7d2u4jv31vITQ6-mz4s-43">
          <mxGeometry x="20" y="23" width="60" height="30" as="geometry" />
        </mxCell>
        <mxCell id="f7d2u4jv31vITQ6-mz4s-45" value="name" style="text;html=1;align=left;verticalAlign=middle;whiteSpace=wrap;rounded=0;" vertex="1" parent="f7d2u4jv31vITQ6-mz4s-43">
          <mxGeometry x="20" y="53" width="60" height="30" as="geometry" />
        </mxCell>
        <mxCell id="f7d2u4jv31vITQ6-mz4s-48" value="&lt;b&gt;&lt;font style=&quot;font-size: 24px;&quot;&gt;MCD Crafted By&lt;/font&gt;&lt;/b&gt;" style="text;html=1;align=center;verticalAlign=middle;whiteSpace=wrap;rounded=0;" vertex="1" parent="1">
          <mxGeometry x="230" y="39" width="310" height="30" as="geometry" />
        </mxCell>
        <mxCell id="f7d2u4jv31vITQ6-mz4s-49" value="Cart" style="swimlane;whiteSpace=wrap;html=1;" vertex="1" parent="1">
          <mxGeometry x="100" y="618" width="110" height="90" as="geometry" />
        </mxCell>
        <mxCell id="f7d2u4jv31vITQ6-mz4s-50" value="Id" style="text;html=1;align=left;verticalAlign=middle;whiteSpace=wrap;rounded=0;" vertex="1" parent="f7d2u4jv31vITQ6-mz4s-49">
          <mxGeometry x="20" y="23" width="60" height="30" as="geometry" />
        </mxCell>
        <mxCell id="f7d2u4jv31vITQ6-mz4s-51" value="cartStatus" style="text;html=1;align=left;verticalAlign=middle;whiteSpace=wrap;rounded=0;" vertex="1" parent="f7d2u4jv31vITQ6-mz4s-49">
          <mxGeometry x="20" y="53" width="60" height="30" as="geometry" />
        </mxCell>
        <mxCell id="f7d2u4jv31vITQ6-mz4s-52" value="Review" style="swimlane;whiteSpace=wrap;html=1;" vertex="1" parent="1">
          <mxGeometry x="260" y="460" width="110" height="120" as="geometry" />
        </mxCell>
        <mxCell id="f7d2u4jv31vITQ6-mz4s-53" value="Id" style="text;html=1;align=left;verticalAlign=middle;whiteSpace=wrap;rounded=0;" vertex="1" parent="f7d2u4jv31vITQ6-mz4s-52">
          <mxGeometry x="20" y="23" width="60" height="30" as="geometry" />
        </mxCell>
        <mxCell id="f7d2u4jv31vITQ6-mz4s-54" value="rating" style="text;html=1;align=left;verticalAlign=middle;whiteSpace=wrap;rounded=0;" vertex="1" parent="f7d2u4jv31vITQ6-mz4s-52">
          <mxGeometry x="20" y="53" width="60" height="30" as="geometry" />
        </mxCell>
        <mxCell id="f7d2u4jv31vITQ6-mz4s-55" value="comment" style="text;html=1;align=left;verticalAlign=middle;whiteSpace=wrap;rounded=0;" vertex="1" parent="f7d2u4jv31vITQ6-mz4s-52">
          <mxGeometry x="20" y="83" width="60" height="30" as="geometry" />
        </mxCell>
        <mxCell id="f7d2u4jv31vITQ6-mz4s-57" value="Order" style="swimlane;whiteSpace=wrap;html=1;" vertex="1" parent="1">
          <mxGeometry x="100" y="780" width="130" height="160" as="geometry" />
        </mxCell>
        <mxCell id="f7d2u4jv31vITQ6-mz4s-58" value="Id" style="text;html=1;align=left;verticalAlign=middle;whiteSpace=wrap;rounded=0;" vertex="1" parent="f7d2u4jv31vITQ6-mz4s-57">
          <mxGeometry x="20" y="23" width="60" height="30" as="geometry" />
        </mxCell>
        <mxCell id="f7d2u4jv31vITQ6-mz4s-59" value="date" style="text;html=1;align=left;verticalAlign=middle;whiteSpace=wrap;rounded=0;" vertex="1" parent="f7d2u4jv31vITQ6-mz4s-57">
          <mxGeometry x="20" y="53" width="60" height="30" as="geometry" />
        </mxCell>
        <mxCell id="f7d2u4jv31vITQ6-mz4s-60" value="totalPrice" style="text;html=1;align=left;verticalAlign=middle;whiteSpace=wrap;rounded=0;" vertex="1" parent="f7d2u4jv31vITQ6-mz4s-57">
          <mxGeometry x="20" y="120" width="60" height="30" as="geometry" />
        </mxCell>
        <mxCell id="f7d2u4jv31vITQ6-mz4s-61" value="deliveryStatus" style="text;html=1;align=left;verticalAlign=middle;whiteSpace=wrap;rounded=0;" vertex="1" parent="f7d2u4jv31vITQ6-mz4s-57">
          <mxGeometry x="20" y="83" width="60" height="30" as="geometry" />
        </mxCell>
        <mxCell id="f7d2u4jv31vITQ6-mz4s-62" value="Custom" style="swimlane;whiteSpace=wrap;html=1;" vertex="1" parent="1">
          <mxGeometry x="315" y="800" width="110" height="60" as="geometry" />
        </mxCell>
        <mxCell id="f7d2u4jv31vITQ6-mz4s-63" value="Id" style="text;html=1;align=left;verticalAlign=middle;whiteSpace=wrap;rounded=0;" vertex="1" parent="f7d2u4jv31vITQ6-mz4s-62">
          <mxGeometry x="20" y="23" width="60" height="30" as="geometry" />
        </mxCell>
        <mxCell id="f7d2u4jv31vITQ6-mz4s-65" value="Color" style="swimlane;whiteSpace=wrap;html=1;" vertex="1" parent="1">
          <mxGeometry x="510" y="750" width="110" height="90" as="geometry" />
        </mxCell>
        <mxCell id="f7d2u4jv31vITQ6-mz4s-66" value="Id" style="text;html=1;align=left;verticalAlign=middle;whiteSpace=wrap;rounded=0;" vertex="1" parent="f7d2u4jv31vITQ6-mz4s-65">
          <mxGeometry x="20" y="23" width="60" height="30" as="geometry" />
        </mxCell>
        <mxCell id="f7d2u4jv31vITQ6-mz4s-67" value="name" style="text;html=1;align=left;verticalAlign=middle;whiteSpace=wrap;rounded=0;" vertex="1" parent="f7d2u4jv31vITQ6-mz4s-65">
          <mxGeometry x="20" y="53" width="60" height="30" as="geometry" />
        </mxCell>
        <mxCell id="f7d2u4jv31vITQ6-mz4s-68" value="Size" style="swimlane;whiteSpace=wrap;html=1;" vertex="1" parent="1">
          <mxGeometry x="510" y="890" width="110" height="90" as="geometry" />
        </mxCell>
        <mxCell id="f7d2u4jv31vITQ6-mz4s-69" value="Id" style="text;html=1;align=left;verticalAlign=middle;whiteSpace=wrap;rounded=0;" vertex="1" parent="f7d2u4jv31vITQ6-mz4s-68">
          <mxGeometry x="20" y="23" width="60" height="30" as="geometry" />
        </mxCell>
        <mxCell id="f7d2u4jv31vITQ6-mz4s-70" value="name" style="text;html=1;align=left;verticalAlign=middle;whiteSpace=wrap;rounded=0;" vertex="1" parent="f7d2u4jv31vITQ6-mz4s-68">
          <mxGeometry x="20" y="53" width="60" height="30" as="geometry" />
        </mxCell>
        <mxCell id="f7d2u4jv31vITQ6-mz4s-71" value="have" style="rounded=1;whiteSpace=wrap;html=1;" vertex="1" parent="1">
          <mxGeometry x="50" y="240" width="70" height="30" as="geometry" />
        </mxCell>
        <mxCell id="f7d2u4jv31vITQ6-mz4s-72" value="have" style="rounded=1;whiteSpace=wrap;html=1;" vertex="1" parent="1">
          <mxGeometry x="200" y="240" width="70" height="30" as="geometry" />
        </mxCell>
        <mxCell id="f7d2u4jv31vITQ6-mz4s-73" value="have" style="rounded=1;whiteSpace=wrap;html=1;" vertex="1" parent="1">
          <mxGeometry x="340" y="240" width="70" height="30" as="geometry" />
        </mxCell>
        <mxCell id="f7d2u4jv31vITQ6-mz4s-74" value="have" style="rounded=1;whiteSpace=wrap;html=1;" vertex="1" parent="1">
          <mxGeometry x="560" y="520" width="70" height="30" as="geometry" />
        </mxCell>
        <mxCell id="f7d2u4jv31vITQ6-mz4s-75" value="have" style="rounded=1;whiteSpace=wrap;html=1;" vertex="1" parent="1">
          <mxGeometry x="410" y="750" width="70" height="30" as="geometry" />
        </mxCell>
        <mxCell id="f7d2u4jv31vITQ6-mz4s-76" value="have" style="rounded=1;whiteSpace=wrap;html=1;" vertex="1" parent="1">
          <mxGeometry x="410" y="910" width="70" height="30" as="geometry" />
        </mxCell>
        <mxCell id="f7d2u4jv31vITQ6-mz4s-77" value="have" style="rounded=1;whiteSpace=wrap;html=1;" vertex="1" parent="1">
          <mxGeometry x="290" y="740" width="70" height="30" as="geometry" />
        </mxCell>
        <mxCell id="f7d2u4jv31vITQ6-mz4s-78" value="have" style="rounded=1;whiteSpace=wrap;html=1;" vertex="1" parent="1">
          <mxGeometry x="270" y="670" width="70" height="30" as="geometry" />
        </mxCell>
        <mxCell id="f7d2u4jv31vITQ6-mz4s-79" value="have" style="rounded=1;whiteSpace=wrap;html=1;" vertex="1" parent="1">
          <mxGeometry x="280" y="610" width="70" height="30" as="geometry" />
        </mxCell>
        <mxCell id="f7d2u4jv31vITQ6-mz4s-80" value="make" style="rounded=1;whiteSpace=wrap;html=1;" vertex="1" parent="1">
          <mxGeometry x="280" y="392" width="70" height="30" as="geometry" />
        </mxCell>
        <mxCell id="f7d2u4jv31vITQ6-mz4s-81" value="be" style="rounded=1;whiteSpace=wrap;html=1;" vertex="1" parent="1">
          <mxGeometry x="280" y="340" width="70" height="30" as="geometry" />
        </mxCell>
        <mxCell id="f7d2u4jv31vITQ6-mz4s-82" value="choose" style="rounded=1;whiteSpace=wrap;html=1;" vertex="1" parent="1">
          <mxGeometry x="520" y="240" width="70" height="30" as="geometry" />
        </mxCell>
        <mxCell id="f7d2u4jv31vITQ6-mz4s-83" value="make" style="rounded=1;whiteSpace=wrap;html=1;" vertex="1" parent="1">
          <mxGeometry x="120" y="730" width="70" height="30" as="geometry" />
        </mxCell>
        <mxCell id="f7d2u4jv31vITQ6-mz4s-84" value="make" style="rounded=1;whiteSpace=wrap;html=1;" vertex="1" parent="1">
          <mxGeometry x="120" y="550" width="70" height="30" as="geometry" />
        </mxCell>
        <mxCell id="f7d2u4jv31vITQ6-mz4s-93" value="" style="endArrow=classic;html=1;rounded=0;exitX=0.25;exitY=1;exitDx=0;exitDy=0;edgeStyle=orthogonalEdgeStyle;entryX=0;entryY=0.5;entryDx=0;entryDy=0;" edge="1" parent="1" target="f7d2u4jv31vITQ6-mz4s-71">
          <mxGeometry relative="1" as="geometry">
            <mxPoint x="30" y="210" as="sourcePoint" />
            <mxPoint x="30" y="260" as="targetPoint" />
            <Array as="points">
              <mxPoint x="30" y="255" />
            </Array>
          </mxGeometry>
        </mxCell>
        <mxCell id="f7d2u4jv31vITQ6-mz4s-94" value="(1, n)" style="edgeLabel;resizable=0;html=1;;align=center;verticalAlign=middle;" connectable="0" vertex="1" parent="f7d2u4jv31vITQ6-mz4s-93">
          <mxGeometry relative="1" as="geometry">
            <mxPoint y="-8" as="offset" />
          </mxGeometry>
        </mxCell>
        <mxCell id="f7d2u4jv31vITQ6-mz4s-95" value="Source" style="edgeLabel;resizable=0;html=1;;align=left;verticalAlign=bottom;" connectable="0" vertex="1" parent="f7d2u4jv31vITQ6-mz4s-93">
          <mxGeometry x="-1" relative="1" as="geometry" />
        </mxCell>
        <mxCell id="f7d2u4jv31vITQ6-mz4s-97" value="" style="endArrow=classic;html=1;rounded=0;edgeStyle=orthogonalEdgeStyle;entryX=0.5;entryY=1;entryDx=0;entryDy=0;" edge="1" parent="1" target="f7d2u4jv31vITQ6-mz4s-71">
          <mxGeometry relative="1" as="geometry">
            <mxPoint x="100" y="330" as="sourcePoint" />
            <mxPoint x="50" y="260" as="targetPoint" />
            <Array as="points">
              <mxPoint x="85" y="330" />
            </Array>
          </mxGeometry>
        </mxCell>
        <mxCell id="f7d2u4jv31vITQ6-mz4s-98" value="(1, 1)" style="edgeLabel;resizable=0;html=1;;align=center;verticalAlign=middle;" connectable="0" vertex="1" parent="f7d2u4jv31vITQ6-mz4s-97">
          <mxGeometry relative="1" as="geometry" />
        </mxCell>
        <mxCell id="f7d2u4jv31vITQ6-mz4s-99" value="" style="endArrow=classic;html=1;rounded=0;entryX=0.5;entryY=1;entryDx=0;entryDy=0;edgeStyle=orthogonalEdgeStyle;" edge="1" parent="1" target="f7d2u4jv31vITQ6-mz4s-72">
          <mxGeometry relative="1" as="geometry">
            <mxPoint x="220" y="330" as="sourcePoint" />
            <mxPoint x="50" y="260" as="targetPoint" />
            <Array as="points">
              <mxPoint x="220" y="330" />
              <mxPoint x="235" y="330" />
            </Array>
          </mxGeometry>
        </mxCell>
        <mxCell id="f7d2u4jv31vITQ6-mz4s-100" value="(0, 1)" style="edgeLabel;resizable=0;html=1;;align=center;verticalAlign=middle;" connectable="0" vertex="1" parent="f7d2u4jv31vITQ6-mz4s-99">
          <mxGeometry relative="1" as="geometry" />
        </mxCell>
        <mxCell id="f7d2u4jv31vITQ6-mz4s-101" value="" style="endArrow=classic;html=1;rounded=0;exitX=0.5;exitY=0;exitDx=0;exitDy=0;entryX=0.5;entryY=1;entryDx=0;entryDy=0;" edge="1" parent="1" source="f7d2u4jv31vITQ6-mz4s-72" target="f7d2u4jv31vITQ6-mz4s-30">
          <mxGeometry relative="1" as="geometry">
            <mxPoint x="50" y="300" as="sourcePoint" />
            <mxPoint x="150" y="300" as="targetPoint" />
          </mxGeometry>
        </mxCell>
        <mxCell id="f7d2u4jv31vITQ6-mz4s-102" value="Label" style="edgeLabel;resizable=0;html=1;;align=center;verticalAlign=middle;" connectable="0" vertex="1" parent="f7d2u4jv31vITQ6-mz4s-101">
          <mxGeometry relative="1" as="geometry" />
        </mxCell>
        <mxCell id="f7d2u4jv31vITQ6-mz4s-103" value="(1, 1)" style="edgeLabel;html=1;align=center;verticalAlign=middle;resizable=0;points=[];" vertex="1" connectable="0" parent="f7d2u4jv31vITQ6-mz4s-101">
          <mxGeometry x="-0.1382" relative="1" as="geometry">
            <mxPoint as="offset" />
          </mxGeometry>
        </mxCell>
        <mxCell id="f7d2u4jv31vITQ6-mz4s-105" value="" style="endArrow=classic;html=1;rounded=0;entryX=0;entryY=0.5;entryDx=0;entryDy=0;edgeStyle=orthogonalEdgeStyle;exitX=1;exitY=0.25;exitDx=0;exitDy=0;" edge="1" parent="1" source="f7d2u4jv31vITQ6-mz4s-1" target="f7d2u4jv31vITQ6-mz4s-81">
          <mxGeometry relative="1" as="geometry">
            <mxPoint x="230" y="350" as="sourcePoint" />
            <mxPoint x="360" y="410" as="targetPoint" />
          </mxGeometry>
        </mxCell>
        <mxCell id="f7d2u4jv31vITQ6-mz4s-106" value="(0, 1)" style="edgeLabel;resizable=0;html=1;;align=center;verticalAlign=middle;" connectable="0" vertex="1" parent="f7d2u4jv31vITQ6-mz4s-105">
          <mxGeometry relative="1" as="geometry" />
        </mxCell>
        <mxCell id="f7d2u4jv31vITQ6-mz4s-108" value="" style="endArrow=classic;html=1;rounded=0;exitX=1.016;exitY=0.517;exitDx=0;exitDy=0;exitPerimeter=0;entryX=0;entryY=0.25;entryDx=0;entryDy=0;edgeStyle=orthogonalEdgeStyle;" edge="1" parent="1" source="f7d2u4jv31vITQ6-mz4s-81" target="f7d2u4jv31vITQ6-mz4s-8">
          <mxGeometry relative="1" as="geometry">
            <mxPoint x="350" y="354.71" as="sourcePoint" />
            <mxPoint x="410" y="355" as="targetPoint" />
          </mxGeometry>
        </mxCell>
        <mxCell id="f7d2u4jv31vITQ6-mz4s-109" value="Label" style="edgeLabel;resizable=0;html=1;;align=center;verticalAlign=middle;" connectable="0" vertex="1" parent="f7d2u4jv31vITQ6-mz4s-108">
          <mxGeometry relative="1" as="geometry" />
        </mxCell>
        <mxCell id="f7d2u4jv31vITQ6-mz4s-110" value="(1 , 1)" style="edgeLabel;html=1;align=center;verticalAlign=middle;resizable=0;points=[];" vertex="1" connectable="0" parent="f7d2u4jv31vITQ6-mz4s-108">
          <mxGeometry x="0.073" y="-1" relative="1" as="geometry">
            <mxPoint as="offset" />
          </mxGeometry>
        </mxCell>
        <mxCell id="f7d2u4jv31vITQ6-mz4s-111" value="" style="endArrow=classic;html=1;rounded=0;exitX=1;exitY=0.25;exitDx=0;exitDy=0;entryX=0;entryY=0.5;entryDx=0;entryDy=0;edgeStyle=orthogonalEdgeStyle;" edge="1" parent="1" source="f7d2u4jv31vITQ6-mz4s-1" target="f7d2u4jv31vITQ6-mz4s-80">
          <mxGeometry relative="1" as="geometry">
            <mxPoint x="230" y="450" as="sourcePoint" />
            <mxPoint x="330" y="450" as="targetPoint" />
            <Array as="points">
              <mxPoint x="230" y="352" />
              <mxPoint x="230" y="407" />
            </Array>
          </mxGeometry>
        </mxCell>
        <mxCell id="f7d2u4jv31vITQ6-mz4s-112" value="(0, n)" style="edgeLabel;resizable=0;html=1;;align=center;verticalAlign=middle;" connectable="0" vertex="1" parent="f7d2u4jv31vITQ6-mz4s-111">
          <mxGeometry relative="1" as="geometry">
            <mxPoint x="7" y="-11" as="offset" />
          </mxGeometry>
        </mxCell>
        <mxCell id="f7d2u4jv31vITQ6-mz4s-113" value="" style="endArrow=classic;html=1;rounded=0;exitX=0.5;exitY=1;exitDx=0;exitDy=0;entryX=0.5;entryY=0;entryDx=0;entryDy=0;edgeStyle=orthogonalEdgeStyle;" edge="1" parent="1" source="f7d2u4jv31vITQ6-mz4s-80" target="f7d2u4jv31vITQ6-mz4s-52">
          <mxGeometry relative="1" as="geometry">
            <mxPoint x="120" y="440" as="sourcePoint" />
            <mxPoint x="370" y="430" as="targetPoint" />
          </mxGeometry>
        </mxCell>
        <mxCell id="f7d2u4jv31vITQ6-mz4s-114" value="(0, 1)" style="edgeLabel;resizable=0;html=1;;align=center;verticalAlign=middle;" connectable="0" vertex="1" parent="f7d2u4jv31vITQ6-mz4s-113">
          <mxGeometry relative="1" as="geometry">
            <mxPoint y="-4" as="offset" />
          </mxGeometry>
        </mxCell>
        <mxCell id="f7d2u4jv31vITQ6-mz4s-115" value="" style="endArrow=classic;html=1;rounded=0;exitX=0;exitY=0.25;exitDx=0;exitDy=0;entryX=0.5;entryY=1;entryDx=0;entryDy=0;edgeStyle=orthogonalEdgeStyle;" edge="1" parent="1" source="f7d2u4jv31vITQ6-mz4s-8" target="f7d2u4jv31vITQ6-mz4s-73">
          <mxGeometry relative="1" as="geometry">
            <mxPoint x="240" y="370" as="sourcePoint" />
            <mxPoint x="340" y="370" as="targetPoint" />
          </mxGeometry>
        </mxCell>
        <mxCell id="f7d2u4jv31vITQ6-mz4s-116" value="Label" style="edgeLabel;resizable=0;html=1;;align=center;verticalAlign=middle;" connectable="0" vertex="1" parent="f7d2u4jv31vITQ6-mz4s-115">
          <mxGeometry relative="1" as="geometry">
            <mxPoint y="-18" as="offset" />
          </mxGeometry>
        </mxCell>
        <mxCell id="f7d2u4jv31vITQ6-mz4s-117" value="(1, 1)" style="edgeLabel;html=1;align=center;verticalAlign=middle;resizable=0;points=[];" vertex="1" connectable="0" parent="f7d2u4jv31vITQ6-mz4s-115">
          <mxGeometry x="0.3947" y="2" relative="1" as="geometry">
            <mxPoint as="offset" />
          </mxGeometry>
        </mxCell>
        <mxCell id="f7d2u4jv31vITQ6-mz4s-118" value="" style="endArrow=classic;html=1;rounded=0;exitX=1;exitY=0.25;exitDx=0;exitDy=0;entryX=0.5;entryY=1;entryDx=0;entryDy=0;edgeStyle=orthogonalEdgeStyle;" edge="1" parent="1" source="f7d2u4jv31vITQ6-mz4s-8" target="f7d2u4jv31vITQ6-mz4s-82">
          <mxGeometry relative="1" as="geometry">
            <mxPoint x="560" y="330" as="sourcePoint" />
            <mxPoint x="660" y="330" as="targetPoint" />
          </mxGeometry>
        </mxCell>
        <mxCell id="f7d2u4jv31vITQ6-mz4s-119" value="(1 ,1)" style="edgeLabel;resizable=0;html=1;;align=center;verticalAlign=middle;" connectable="0" vertex="1" parent="f7d2u4jv31vITQ6-mz4s-118">
          <mxGeometry relative="1" as="geometry">
            <mxPoint y="-5" as="offset" />
          </mxGeometry>
        </mxCell>
        <mxCell id="f7d2u4jv31vITQ6-mz4s-120" value="" style="endArrow=classic;html=1;rounded=0;exitX=0.5;exitY=0;exitDx=0;exitDy=0;entryX=0.5;entryY=1;entryDx=0;entryDy=0;edgeStyle=orthogonalEdgeStyle;" edge="1" parent="1" source="f7d2u4jv31vITQ6-mz4s-73" target="f7d2u4jv31vITQ6-mz4s-15">
          <mxGeometry relative="1" as="geometry">
            <mxPoint x="375" y="220" as="sourcePoint" />
            <mxPoint x="475" y="220" as="targetPoint" />
          </mxGeometry>
        </mxCell>
        <mxCell id="f7d2u4jv31vITQ6-mz4s-121" value="(0, n)" style="edgeLabel;resizable=0;html=1;;align=center;verticalAlign=middle;" connectable="0" vertex="1" parent="f7d2u4jv31vITQ6-mz4s-120">
          <mxGeometry relative="1" as="geometry">
            <mxPoint x="-1" y="2" as="offset" />
          </mxGeometry>
        </mxCell>
        <mxCell id="f7d2u4jv31vITQ6-mz4s-122" value="" style="endArrow=classic;html=1;rounded=0;exitX=0.5;exitY=0;exitDx=0;exitDy=0;entryX=0.5;entryY=1;entryDx=0;entryDy=0;edgeStyle=orthogonalEdgeStyle;" edge="1" parent="1" source="f7d2u4jv31vITQ6-mz4s-82" target="f7d2u4jv31vITQ6-mz4s-20">
          <mxGeometry relative="1" as="geometry">
            <mxPoint x="540" y="220" as="sourcePoint" />
            <mxPoint x="640" y="220" as="targetPoint" />
          </mxGeometry>
        </mxCell>
        <mxCell id="f7d2u4jv31vITQ6-mz4s-123" value="(1, n)" style="edgeLabel;resizable=0;html=1;;align=center;verticalAlign=middle;" connectable="0" vertex="1" parent="f7d2u4jv31vITQ6-mz4s-122">
          <mxGeometry relative="1" as="geometry">
            <mxPoint y="2" as="offset" />
          </mxGeometry>
        </mxCell>
        <mxCell id="f7d2u4jv31vITQ6-mz4s-124" value="" style="endArrow=classic;html=1;rounded=0;exitX=0.5;exitY=1;exitDx=0;exitDy=0;entryX=0.5;entryY=0;entryDx=0;entryDy=0;edgeStyle=orthogonalEdgeStyle;" edge="1" parent="1" source="f7d2u4jv31vITQ6-mz4s-1" target="f7d2u4jv31vITQ6-mz4s-84">
          <mxGeometry relative="1" as="geometry">
            <mxPoint x="230" y="590" as="sourcePoint" />
            <mxPoint x="330" y="590" as="targetPoint" />
          </mxGeometry>
        </mxCell>
        <mxCell id="f7d2u4jv31vITQ6-mz4s-125" value="(1, 1)" style="edgeLabel;resizable=0;html=1;;align=center;verticalAlign=middle;" connectable="0" vertex="1" parent="f7d2u4jv31vITQ6-mz4s-124">
          <mxGeometry relative="1" as="geometry">
            <mxPoint y="-3" as="offset" />
          </mxGeometry>
        </mxCell>
        <mxCell id="f7d2u4jv31vITQ6-mz4s-126" value="" style="endArrow=classic;html=1;rounded=0;exitX=0.5;exitY=1;exitDx=0;exitDy=0;" edge="1" parent="1" source="f7d2u4jv31vITQ6-mz4s-84" target="f7d2u4jv31vITQ6-mz4s-49">
          <mxGeometry relative="1" as="geometry">
            <mxPoint x="130" y="660" as="sourcePoint" />
            <mxPoint x="230" y="660" as="targetPoint" />
          </mxGeometry>
        </mxCell>
        <mxCell id="f7d2u4jv31vITQ6-mz4s-127" value="(1, 1)" style="edgeLabel;resizable=0;html=1;;align=center;verticalAlign=middle;" connectable="0" vertex="1" parent="f7d2u4jv31vITQ6-mz4s-126">
          <mxGeometry relative="1" as="geometry">
            <mxPoint y="-5" as="offset" />
          </mxGeometry>
        </mxCell>
      </root>
    </mxGraphModel>
  </diagram>
</mxfile>
